<svg width="24" height="24" viewBox="0 0 24 24" fill="none" xmlns="http://www.w3.org/2000/svg">
<path d="M23.2904 7.9562V7.89603C22.4432 5.58074 20.906 3.58178 18.8867 2.16956C16.8673 0.757335 14.4634 0 12 0C9.53661 0 7.13266 0.757335 5.11335 2.16956C3.09403 3.58178 1.5568 5.58074 0.709596 7.89603C0.709596 7.89603 0.709596 7.89603 0.709596 7.9562C-0.236532 10.5689 -0.236532 13.4311 0.709596 16.0438V16.104C1.5568 18.4193 3.09403 20.4182 5.11335 21.8304C7.13266 23.2427 9.53661 24 12 24C14.4634 24 16.8673 23.2427 18.8867 21.8304C20.906 20.4182 22.4432 18.4193 23.2904 16.104C23.2904 16.104 23.2904 16.104 23.2904 16.0438C24.2365 13.4311 24.2365 10.5689 23.2904 7.9562ZM2.66949 14.407C2.25142 12.8296 2.25142 11.1704 2.66949 9.59298H4.90592C4.71323 11.1919 4.71323 12.8081 4.90592 14.407H2.66949ZM3.65544 16.814H5.33878C5.6195 17.8879 6.02295 18.9257 6.54117 19.9071C5.36199 19.103 4.37627 18.0465 3.65544 16.814ZM5.33878 7.18596H3.65544C4.3659 5.95727 5.33901 4.90105 6.5051 4.09293C5.99932 5.07586 5.60799 6.11366 5.33878 7.18596ZM10.7736 21.267C9.29675 20.1823 8.25956 18.6015 7.85177 16.814H10.7736V21.267ZM10.7736 14.407H7.33474C7.11099 12.8102 7.11099 11.1898 7.33474 9.59298H10.7736V14.407ZM10.7736 7.18596H7.85177C8.25956 5.39846 9.29675 3.81771 10.7736 2.73297V7.18596ZM20.2965 7.18596H18.6131C18.3324 6.11213 17.929 5.07427 17.4107 4.09293C18.5899 4.89696 19.5756 5.95349 20.2965 7.18596ZM13.1783 2.73297C14.6552 3.81771 15.6924 5.39846 16.1001 7.18596H13.1783V2.73297ZM13.1783 21.267V16.814H16.1001C15.6924 18.6015 14.6552 20.1823 13.1783 21.267ZM16.6172 14.407H13.1783V9.59298H16.6172C16.8409 11.1898 16.8409 12.8102 16.6172 14.407ZM17.4468 19.9071C17.965 18.9257 18.3685 17.8879 18.6492 16.814H20.3325C19.6117 18.0465 18.626 19.103 17.4468 19.9071ZM21.2824 14.407H19.046C19.1443 13.6085 19.1925 12.8046 19.1903 12C19.1925 11.1954 19.1443 10.3915 19.046 9.59298H21.2824C21.7005 11.1704 21.7005 12.8296 21.2824 14.407Z" fill="#3B82F6"/>
</svg>
